<?xml version="1.0" encoding="utf-8"?>
<!-- Generator: Adobe Illustrator 16.0.0, SVG Export Plug-In . SVG Version: 6.00 Build 0)  -->
<!DOCTYPE svg PUBLIC "-//W3C//DTD SVG 1.1 Tiny//EN" "http://www.w3.org/Graphics/SVG/1.1/DTD/svg11-tiny.dtd">
<svg version="1.1" baseProfile="tiny" id="Layer_1" xmlns="http://www.w3.org/2000/svg" xmlns:xlink="http://www.w3.org/1999/xlink"
	 x="0px" y="0px" width="255.955px" height="62.17px" viewBox="0 0 255.955 62.17" xml:space="preserve">
<g>
	<path fill="none" d="M95.013,34.992h-4.717v6.998h4.361c1.348,0,2.359-0.271,3.033-0.815c0.673-0.543,1.01-1.377,1.01-2.502
		c0-1.214-0.29-2.131-0.871-2.751C97.249,35.302,96.31,34.992,95.013,34.992z"/>
	<path fill="none" d="M221.217,31.935c0.719-0.773,1.076-2.209,1.076-3.424c0-1.24-0.357-2.485-1.076-3.277
		c-0.718-0.793-1.763-1.19-3.136-1.19h-3.908v9.051h3.908C219.455,33.094,220.5,32.708,221.217,31.935z"/>
	<path fill="none" d="M96.66,29.844c0.711-0.543,1.067-1.339,1.067-2.387c0-1.189-0.362-2.055-1.085-2.599
		c-0.725-0.542-1.835-0.815-3.333-0.815h-3.013v6.654h3.144C94.875,30.671,95.949,30.388,96.66,29.844z"/>
	<path fill="none" d="M244.388,23.641c-1.711,0-3.018,0.636-3.923,1.908c-0.903,1.273-1.356,3.373-1.356,7.53
		c0,4.157,0.459,6.119,1.376,7.397c0.917,1.279,2.23,1.917,3.939,1.917c1.66,0,2.945-0.638,3.856-1.917
		c0.91-1.278,1.367-4.158,1.367-7.368c0-3.211-0.459-6.271-1.376-7.549C247.355,24.281,246.06,23.641,244.388,23.641z"/>
	<path fill="#FFFFFF" d="M51.577,45.049c-0.527-2.553-5.226-25.852-5.252-26.005h-5.344l-7.673,18.241L26.14,19.044h-5.756
		l-5.459,27.844h6.113l3.277-16.594l6.472,16.594h5.594l6.295-16.266c0.692,3.913,3.212,15.88,4.082,20.068
		c12.883,1.977,20.129-6.957,20.129-18.109c0-18.813-14.78-32.582-33.447-32.582c-18.443,0-33.447,15.62-33.447,34.821
		c0,9.864,3.336,17.222,4.747,19.874s5.102,7.488,8.66,7.488h41.658l-1.274-6.352H14.912c-1.489,0-2.618-0.98-3.076-1.648
		C9.447,50.702,6.035,44.049,6.035,34.82c0-15.697,12.294-28.468,27.405-28.468c15.765,0,27.405,11.411,27.405,26.229
		C60.845,38.073,58.062,45.474,51.577,45.049z"/>
	<path fill="#FFFFFF" d="M103.155,30.275c0.611-1.035,0.917-2.217,0.917-3.547c0-2.543-0.948-4.458-2.845-5.742
		c-1.897-1.285-4.536-1.927-7.918-1.927h-9.358v27.916h10.706c3.332,0,5.89-0.696,7.674-2.09c1.785-1.393,2.677-3.451,2.677-6.173
		c0-1.458-0.381-2.745-1.142-3.864c-0.761-1.118-1.94-1.863-3.538-2.234C101.601,32.09,102.544,31.311,103.155,30.275z
		 M90.296,24.043h3.013c1.498,0,2.608,0.273,3.333,0.815c0.723,0.544,1.085,1.41,1.085,2.599c0,1.048-0.356,1.844-1.067,2.387
		c-0.711,0.544-1.785,0.827-3.22,0.853h-3.144V24.043z M97.69,41.175c-0.674,0.544-1.685,0.815-3.033,0.815h-4.361v-6.998h4.717
		c1.297,0,2.236,0.31,2.816,0.93c0.581,0.62,0.871,1.537,0.871,2.751C98.7,39.798,98.363,40.632,97.69,41.175z"/>
	<polygon fill="#FFFFFF" points="177.806,24.044 177.806,19.059 159.635,19.059 159.635,46.975 177.768,46.975 177.768,41.99 
		165.98,41.99 165.98,35.03 175.859,35.03 175.859,30.045 165.98,30.045 165.98,24.044 	"/>
	<polygon fill="#FFFFFF" points="195.536,46.976 195.536,24.044 202.723,24.044 202.723,19.06 182.059,19.06 182.059,24.044 
		189.19,24.044 189.19,46.976 	"/>
	<path fill="#FFFFFF" d="M218.082,38.079c3.232,0,5.797-0.84,7.693-2.522c1.896-1.68,2.846-4.337,2.846-7.085
		c0-2.736-0.949-5.179-2.846-6.873c-1.896-1.693-4.461-2.54-7.693-2.54h-10.253v27.916h6.345v-8.896H218.082z M214.173,24.043h3.908
		c1.373,0,2.418,0.397,3.136,1.19c0.719,0.792,1.076,2.037,1.076,3.277c0,1.215-0.357,2.651-1.076,3.424
		c-0.718,0.773-1.763,1.16-3.136,1.16h-3.908V24.043z"/>
	<path fill="#FFFFFF" d="M244.388,18.656c-3.444,0-6.237,1.119-8.377,3.356c-2.141,2.237-3.21,6.566-3.21,11.698
		c0,5.131,1.072,8.092,3.22,10.323c2.146,2.231,4.947,3.345,8.403,3.345c3.433,0,6.212-1.114,8.34-3.345
		c2.128-2.231,3.19-4.991,3.19-11.011s-1.073-8.773-3.219-11.01C250.588,19.775,247.806,18.656,244.388,18.656z M248.281,40.476
		c-0.911,1.279-2.196,1.917-3.856,1.917c-1.709,0-3.022-0.638-3.939-1.917c-0.917-1.278-1.376-3.24-1.376-7.397
		c0-4.157,0.453-6.257,1.356-7.53c0.905-1.272,2.212-1.908,3.923-1.908c1.672,0,2.967,0.64,3.884,1.918
		c0.917,1.278,1.376,4.338,1.376,7.549C249.648,36.318,249.191,39.198,248.281,40.476z"/>
	<polygon fill="#FFFFFF" points="132.421,46.976 138.376,46.976 144.554,29.751 147.731,46.976 154.487,46.976 149.343,19.134 
		142.493,19.134 135.933,37.734 129.152,19.134 122.488,19.134 117.599,46.976 123.694,46.976 126.634,29.243 	"/>
</g>
</svg>
